<?xml version="1.0" standalone="no"?><!DOCTYPE svg PUBLIC "-//W3C//DTD SVG 1.1//EN" "http://www.w3.org/Graphics/SVG/1.1/DTD/svg11.dtd"><svg t="1546689009780" class="icon" style="" viewBox="0 0 1024 1024" version="1.1" xmlns="http://www.w3.org/2000/svg" p-id="496" xmlns:xlink="http://www.w3.org/1999/xlink" width="200" height="200"><defs><style type="text/css"></style></defs><path d="M511.96928 14.54592h10.30656c41.94816 16.04096 76.20608 48.19968 113.42848 74.76224 90.496 64.57856 179.07712 130.64704 271.97952 197.2224 17.4592 12.50816 42.7264 26.66496 48.98304 43.8272 6.42048 17.5872 2.58048 54.20544 2.58048 81.20832v502.72256c0 26.40896 2.19648 62.8736-7.7312 76.05248-12.32384 16.3328-52.23936 14.1824-85.07904 14.1824H620.2368c-15.19104 0-31.95392 2.56512-45.11744-3.87072-4.60288-15.14496-2.57536-32.29696-2.57536-48.98304v-152.10496c3.96288-7.0144 12.81024-7.73632 18.03776-10.31168 61.62944-30.28992 117.00736-105.84064 99.26144-198.50752-9.4208-49.14688-33.63328-87.90016-70.90176-112.14848v76.05248c0 20.84864 3.8656 53.70368-10.31168 65.74592-15.93344 13.52192-67.75808 6.44096-96.67072 6.44096H460.39552c-28.1344 0-47.44704 2.21696-56.71424-14.1824-8.45824-14.95552-3.8656-43.8272-3.8656-63.1552V483.75296c-5.6576-4.24448-9.8816 4.8384-12.89216 7.73632-32.70656 31.50848-63.31904 76.97408-58.00448 146.95424 6.1696 81.29536 61.89568 135.13216 122.45504 159.83104v154.68544c0 15.01696 2.51392 39.17824-5.15584 46.40256-10.08128 9.49248-71.62368 5.16096-92.80512 5.16096-66.4576 0-124.17536-1.29024-194.64192-1.29024-42.15296 0-97.14688 8.8064-95.3856-32.22528V406.41536c1.6128-24.29952 1.29536-55.99744 10.31168-74.76224 8.2176-17.1008 25.05728-31.0528 45.12256-45.11744 108.22656-75.86304 214.81984-152.35072 319.67232-226.8672 24.14592-17.16736 45.56288-37.05344 73.47712-45.12256z m314.51136 931.96288c20.2496 0 51.6096 2.28864 59.29472-6.4512 9.12384-10.37312 3.87072-45.56288 3.87072-67.02592V430.89408c0-20.61824 4.27008-58.56256 0-72.18176-3.5584-11.35104-30.48448-26.05056-43.8272-36.09088-78.91456-59.40736-153.2928-112.88064-230.73792-170.14784-12.94848-9.57952-28.53376-22.84032-45.11232-34.80576-14.77632-10.65984-35.55328-29.09696-51.5584-29.6448-0.69632-0.0256-6.03648 0.99328-6.44096 1.28512-111.616 80.06144-222.3616 157.4656-335.14496 237.17888-16.95744 11.9808-38.05696 25.18016-42.54208 39.9616-5.4272 17.89952-2.57536 48.62976-2.57536 69.6064v433.11104c0 22.95296-2.90304 46.97088 3.8656 69.6064 17.15712 7.87968 38.53824 5.16096 59.29472 5.16096 64.39424 0 132.95104 1.04448 193.35168-1.29024 7.35744-28.75392 3.57376-75.45344 2.57536-108.27776-2.5856-5.248-8.82176-6.35904-12.88704-9.02144-61.76768-40.448-118.98368-121.48224-105.7024-232.01792 7.43936-61.9008 40.51968-113.9456 78.63296-148.24448 7.66976-6.90176 15.65696-14.336 24.49408-20.62336 13.68064-9.73312 44.53376-29.97248 65.7408-23.20384 21.68832 6.92736 18.04288 42.74176 18.04288 73.47712v92.81024c33.09568-0.84992 69.5808 1.69984 100.53632-1.29024V488.9088c0-25.41056-5.30944-58.19904 2.58048-74.76224 10.6752-22.43072 36.6848-14.41792 55.424-5.15584 71.31648 35.26656 119.92064 96.6144 131.4816 185.6256 13.70112 105.41056-36.20864 178.03264-91.51488 220.42112-6.3744 4.87424-23.59296 13.59872-25.78432 20.61824-2.11968 6.79936 0 18.28352 0 27.06944 0 29.3376-1.02912 57.29792 1.29024 82.49856 64.18432 2.34496 125.38368 1.28512 193.35168 1.28512z" fill="#009EED" p-id="497"></path><path d="M612.992 689.5872c0 13.09696-10.7264 23.71584-23.94624 23.71584H433.22368c-13.22496 0-23.94624-10.61888-23.94624-23.71584s10.72128-23.7056 23.94624-23.7056h155.82208c13.21984 0 23.94624 10.60864 23.94624 23.7056z" fill="#009CFC" p-id="498"></path></svg>